<svg width="14" height="17" viewBox="0 0 14 17" fill="none" xmlns="http://www.w3.org/2000/svg">
<g opacity="0.2">
<path d="M0.53125 12.5534C0.53125 12.0047 0.941374 11.5409 1.4875 11.4803C5.58608 11.0266 8.24498 11.0675 12.3345 11.4904C12.5388 11.5119 12.7323 11.5923 12.8916 11.7219C13.0508 11.8516 13.1688 12.0248 13.2313 12.2204C13.2937 12.416 13.2978 12.6256 13.2431 12.8235C13.1884 13.0214 13.0772 13.1991 12.9232 13.3349C8.09677 17.5419 5.33852 17.484 0.871249 13.3392C0.653437 13.1373 0.53125 12.8504 0.53125 12.554V12.5534Z" fill="#676767"/>
<path fill-rule="evenodd" clip-rule="evenodd" d="M12.2798 12.0184C8.22267 11.5987 5.60202 11.5594 1.54541 12.0083C1.41187 12.0239 1.28877 12.0882 1.19967 12.1888C1.11057 12.2895 1.06173 12.4195 1.0625 12.5539C1.0625 12.7059 1.12572 12.8498 1.2325 12.9497C3.44675 15.0035 5.12443 15.9316 6.76439 15.9374C8.4102 15.9433 10.1782 15.0226 12.5741 12.9348C12.6502 12.8671 12.705 12.7787 12.7319 12.6804C12.7587 12.5821 12.7564 12.4781 12.7252 12.3811C12.694 12.2841 12.6353 12.1982 12.5563 12.1339C12.4772 12.0696 12.3812 12.0297 12.2798 12.019V12.0184ZM1.42906 10.9522C5.57068 10.4937 8.26836 10.5352 12.3898 10.9618C12.697 10.9938 12.9882 11.1148 13.2278 11.3098C13.4673 11.5048 13.6448 11.7655 13.7385 12.0598C13.8322 12.3541 13.838 12.6694 13.7553 12.967C13.6726 13.2646 13.5049 13.5317 13.2727 13.7354C10.8423 15.854 8.8182 17.0079 6.76121 16.9999C4.69837 16.9925 2.76356 15.819 0.510533 13.7285C0.349221 13.5783 0.220627 13.3964 0.132785 13.1942C0.0449431 12.992 -0.000259 12.7738 3.08086e-06 12.5534C-0.0007717 12.1573 0.144611 11.7749 0.408302 11.4793C0.671993 11.1838 1.03545 10.9959 1.42906 10.9517V10.9522Z" fill="#676767"/>
<path d="M11.1562 4.24999C11.1562 5.37716 10.7085 6.45816 9.91144 7.25519C9.11441 8.05222 8.03341 8.49998 6.90624 8.49998C5.77907 8.49998 4.69807 8.05222 3.90104 7.25519C3.10402 6.45816 2.65625 5.37716 2.65625 4.24999C2.65625 3.12282 3.10402 2.04182 3.90104 1.24479C4.69807 0.447765 5.77907 0 6.90624 0C8.03341 0 9.11441 0.447765 9.91144 1.24479C10.7085 2.04182 11.1562 3.12282 11.1562 4.24999Z" fill="#676767"/>
<path fill-rule="evenodd" clip-rule="evenodd" d="M6.90624 7.43748C7.75162 7.43748 8.56237 7.10166 9.16014 6.50389C9.75791 5.90612 10.0937 5.09537 10.0937 4.24999C10.0937 3.40462 9.75791 2.59386 9.16014 1.99609C8.56237 1.39832 7.75162 1.0625 6.90624 1.0625C6.06087 1.0625 5.25011 1.39832 4.65234 1.99609C4.05457 2.59386 3.71875 3.40462 3.71875 4.24999C3.71875 5.09537 4.05457 5.90612 4.65234 6.50389C5.25011 7.10166 6.06087 7.43748 6.90624 7.43748ZM6.90624 8.49998C8.03341 8.49998 9.11441 8.05222 9.91144 7.25519C10.7085 6.45816 11.1562 5.37716 11.1562 4.24999C11.1562 3.12282 10.7085 2.04182 9.91144 1.24479C9.11441 0.447765 8.03341 0 6.90624 0C5.77907 0 4.69807 0.447765 3.90104 1.24479C3.10402 2.04182 2.65625 3.12282 2.65625 4.24999C2.65625 5.37716 3.10402 6.45816 3.90104 7.25519C4.69807 8.05222 5.77907 8.49998 6.90624 8.49998Z" fill="#676767"/>
</g>
</svg>
