<svg width="15" height="16" viewBox="0 0 15 16" fill="none" xmlns="http://www.w3.org/2000/svg">
<path d="M2.19643 13.0248C5.1256 16.0046 9.87395 16.0046 12.8031 13.0248C15.7323 10.045 15.7323 5.21463 12.8031 2.23484C9.87395 -0.744947 5.1256 -0.744947 2.19643 2.23484C-0.732143 5.21463 -0.732143 10.045 2.19643 13.0248ZM5.52339 2.88488L6.63938 4.02015C6.86258 4.24721 6.90998 4.59817 6.75518 4.87832L6.33579 5.63578C6.28542 5.7266 6.26572 5.83171 6.2797 5.93501C6.29368 6.03831 6.34057 6.1341 6.41319 6.20769L8.89776 8.7352C8.97018 8.80897 9.06437 8.85656 9.16591 8.87067C9.26745 8.88478 9.37074 8.86464 9.45995 8.81333L10.2045 8.38669C10.3385 8.30988 10.4935 8.27981 10.6458 8.30108C10.7982 8.32236 10.9395 8.3938 11.0481 8.50449L12.1647 9.64037C12.2966 9.77483 12.3707 9.95702 12.3707 10.147C12.3707 10.3369 12.2966 10.5191 12.1647 10.6536L11.6361 11.1913C11.3429 11.4889 10.9613 11.6797 10.5506 11.7341C10.1398 11.7885 9.72293 11.7035 9.36456 11.4922L9.31416 11.4629C7.12363 10.1896 5.29146 8.3651 3.99341 6.16436L3.73961 5.73344C3.52389 5.36831 3.4344 4.94028 3.48539 4.51745C3.53639 4.09462 3.72492 3.70128 4.02101 3.40002L4.5274 2.88488C4.59277 2.81829 4.6704 2.76547 4.75585 2.72943C4.8413 2.69339 4.9329 2.67484 5.0254 2.67484C5.1179 2.67484 5.2095 2.69339 5.29495 2.72943C5.3804 2.76547 5.45803 2.81829 5.52339 2.88488Z" fill="#DDDDE1"/>
</svg>
